<svg xmlns="http://www.w3.org/2000/svg" viewBox="0 0 1024 1024">
  <defs>
    <linearGradient id="bg" x1="70" y1="50" x2="930" y2="970" gradientUnits="userSpaceOnUse">
      <stop offset="0" stop-color="#F8FBFF"/>
      <stop offset="0.36" stop-color="#EAF0FF"/>
      <stop offset="0.63" stop-color="#CDBDFF"/>
      <stop offset="1" stop-color="#8FE7DD"/>
    </linearGradient>
    <linearGradient id="thread" x1="180" y1="160" x2="820" y2="820" gradientUnits="userSpaceOnUse">
      <stop offset="0" stop-color="#7EA7FF"/>
      <stop offset="0.52" stop-color="#B9A7FF"/>
      <stop offset="1" stop-color="#8FE7DD"/>
    </linearGradient>
    <filter id="softShadow" x="-20%" y="-20%" width="140%" height="140%">
      <feDropShadow dx="0" dy="28" stdDeviation="34" flood-color="#172033" flood-opacity="0.12"/>
    </filter>
  </defs>
  <rect x="40" y="40" width="944" height="944" rx="224" fill="url(#bg)" filter="url(#softShadow)"/>
  <rect x="54" y="54" width="916" height="916" rx="210" fill="none" stroke="rgba(255,255,255,0.74)" stroke-width="14"/>
  <path d="M260 260 C260 330 260 350 330 352 C405 352 395 351 455 352 C515 352 500 435 565 435 C650 435 654 510 654 565 C654 640 704 654 748 724" fill="none" stroke="#fff" stroke-width="74" stroke-linecap="round" stroke-linejoin="round" opacity="0.95"/>
  <path d="M260 260 C260 330 260 350 330 352 C405 352 395 351 455 352 C515 352 500 435 565 435 C650 435 654 510 654 565 C654 640 704 654 748 724" fill="none" stroke="url(#thread)" stroke-width="32" stroke-linecap="round" stroke-linejoin="round" opacity="0.45"/>
  <g>
    <circle cx="260" cy="260" r="82" fill="#fff" opacity="0.92"/>
    <circle cx="260" cy="260" r="42" fill="#EAF0FF" opacity="0.62"/>
    <circle cx="260" cy="260" r="82" fill="none" stroke="#7EA7FF" stroke-width="14" opacity="0.5"/>
    <circle cx="565" cy="435" r="82" fill="#fff" opacity="0.92"/>
    <circle cx="565" cy="435" r="42" fill="#EAF0FF" opacity="0.62"/>
    <circle cx="565" cy="435" r="82" fill="none" stroke="#B9A7FF" stroke-width="14" opacity="0.5"/>
    <circle cx="748" cy="724" r="82" fill="#fff" opacity="0.92"/>
    <circle cx="748" cy="724" r="42" fill="#EAF0FF" opacity="0.62"/>
    <circle cx="748" cy="724" r="82" fill="none" stroke="#8FE7DD" stroke-width="14" opacity="0.5"/>
  </g>
</svg>