<svg xmlns="http://www.w3.org/2000/svg" viewBox="0 0 1200 360" role="img" aria-labelledby="title">
  <title id="title">Throughline logo lockup</title>
  <defs>
    <linearGradient id="bg" x1="70" y1="50" x2="290" y2="310" gradientUnits="userSpaceOnUse">
      <stop offset="0" stop-color="#F8FBFF"/>
      <stop offset="0.36" stop-color="#EAF0FF"/>
      <stop offset="0.63" stop-color="#CDBDFF"/>
      <stop offset="1" stop-color="#8FE7DD"/>
    </linearGradient>
    <linearGradient id="thread" x1="92" y1="90" x2="250" y2="260" gradientUnits="userSpaceOnUse">
      <stop offset="0" stop-color="#7EA7FF"/>
      <stop offset="0.52" stop-color="#B9A7FF"/>
      <stop offset="1" stop-color="#8FE7DD"/>
    </linearGradient>
  </defs>
  <rect x="24" y="30" width="300" height="300" rx="72" fill="url(#bg)"/>
  <path d="M102 102 C102 132 102 142 130 143 C162 143 158 143 184 143 C210 143 204 178 232 178 C268 178 270 210 270 234" fill="none" stroke="#fff" stroke-width="26" stroke-linecap="round" stroke-linejoin="round" opacity="0.95"/>
  <path d="M102 102 C102 132 102 142 130 143 C162 143 158 143 184 143 C210 143 204 178 232 178 C268 178 270 210 270 234" fill="none" stroke="url(#thread)" stroke-width="12" stroke-linecap="round" stroke-linejoin="round" opacity="0.45"/>
  <circle cx="102" cy="102" r="30" fill="#fff" opacity="0.95"/><circle cx="102" cy="102" r="15" fill="#EAF0FF" opacity="0.7"/>
  <circle cx="232" cy="178" r="30" fill="#fff" opacity="0.95"/><circle cx="232" cy="178" r="15" fill="#EAF0FF" opacity="0.7"/>
  <circle cx="270" cy="234" r="30" fill="#fff" opacity="0.95"/><circle cx="270" cy="234" r="15" fill="#EAF0FF" opacity="0.7"/>
  <text x="380" y="174" font-family="Geist, Inter, ui-sans-serif, system-ui, -apple-system, BlinkMacSystemFont, 'Segoe UI', sans-serif" font-size="112" font-weight="650" letter-spacing="-5" fill="#142033">Throughline</text>
  <text x="386" y="234" font-family="Geist, Inter, ui-sans-serif, system-ui, -apple-system, BlinkMacSystemFont, 'Segoe UI', sans-serif" font-size="38" font-weight="450" fill="#667389">A calm place to plan.</text>
</svg>